<?xml version="1.0" encoding="UTF-8"?>
<svg xmlns="http://www.w3.org/2000/svg" xmlns:xlink="http://www.w3.org/1999/xlink" style="isolation:isolate" viewBox="0 0 256 256" width="48px" height="48px"><defs><clipPath id="_clipPath_avDTrgPEWFZ0xLncyu9I7iYw8pvLfXLU"><rect width="256" height="256"/></clipPath></defs><g clip-path="url(#_clipPath_avDTrgPEWFZ0xLncyu9I7iYw8pvLfXLU)"><g><path d=" M 185.78 100.084 C 178.817 75.733 154.164 41.654 105.277 41.654 C 55.325 41.654 6.022 81.074 6.597 139.037 C 7.172 197 59.508 252 127.351 252 C 195.194 252 252 197.628 252 123.455 C 252 49.283 176.529 4 131.246 4 C 85.963 4 18.77 32.079 4 114.366 C 19.816 58.153 67.924 36.461 106.576 36.461 C 145.228 36.461 194.869 65.422 194.869 123.455 C 194.869 166.791 162.675 193.571 127.351 193.571 C 88.187 193.571 61.371 159.75 62.429 128.649 C 63.488 97.548 84.484 63.728 127.351 63.728 C 151.356 63.728 171.554 73.493 185.78 100.084 Z " fill="rgb(0,0,0)"/><path d=" M 68.921 128 C 68.921 95.394 95.394 68.921 128 68.921 C 160.606 68.921 187.079 95.394 187.079 128 C 187.079 160.606 160.606 187.079 128 187.079 C 95.394 187.079 68.921 160.606 68.921 128 Z  M 116.963 142.932 C 119.662 145.458 119.698 163.841 119.56 166.304 C 119.422 168.767 119.559 173.317 124.754 172.796 C 129.949 172.274 129.42 165.301 129.948 155.916 C 130.218 151.109 134.259 145.492 137.738 144.23 C 139.239 143.686 140.838 143.8 144.23 142.932 C 147.411 142.118 149.51 122.813 149.424 118.262 C 149.288 111.028 141.066 110.685 139.037 119.56 C 138.301 122.777 138.782 130.212 136.44 129.948 C 133.536 129.62 136.756 110.984 137.738 102.681 C 138.44 96.754 136.042 91.501 131.246 90.995 C 124.933 90.328 123.45 97.579 122.157 101.382 C 120.864 105.186 121.996 127.471 119.56 128.649 C 116.955 129.909 115.512 128.412 115.665 122.157 C 115.818 115.902 117.445 112.503 116.963 109.173 C 116.058 102.92 107.438 104.324 106.576 109.173 C 105.739 113.882 105.096 123.474 105.277 131.246 C 105.502 140.845 114.264 140.406 116.963 142.932 Z " fill-rule="evenodd" fill="rgb(0,0,0)"/></g></g></svg>
